:SAMPLES-PER-SECOND 30
:FRAME-RANGE 1-3358
:FULLY-SPECIFIED
:DEGREES
2624
root  -59.4081 39.2066 16.2081 174.191 68.4127 169.653
RightUpLeg  -2.05057 -3.97167 0.192419
RightLeg  14.6624 1.97339 0.453035
RightFoot  -16.4065 -0.241294 -2.94748
RightToes  -1.11029e-010 1.2921e-014 -6.02303e-014
Spine  -4.41179 -1.599 3.51646
Spine1  8.22669 -1.39725 -1.79403
HEad  2.46205 -9.32305 1.52848
LeftShoulder1  0.983723 -0.310812 -21.0525
LeftArm  -3.62756 9.40459 -48.5011
LeftForeArm  35.1694 1.68352 -12.0042
LeftHand  -0.0401921 4.87997 4.00458
RightShoulder  1.71861 2.05211 26.0449
RightArm  -20.7529 7.37416 56.1549
RightForeArm  72.5392 -5.51972 5.42181
RightHand  0.226942 -6.81215 -19.4976
LeftUpLeg  -22.0422 -8.72908 3.37514
LeftLeg  13.0206 4.58491 2.1841
LeftFoot  -1.70489 0.95645 -11.1994
LeftToes  -1.90334e-010 -8.83595e-011 4.99953e-011
2625
root  -58.7958 39.1776 15.7549 173.975 69.2822 169.2
RightUpLeg  -0.737479 -3.9972 -0.329328
RightLeg  13.9043 2.89849 0.549746
RightFoot  -17.0447 -0.247198 -2.64894
RightToes  -1.11029e-010 1.2921e-014 -6.02303e-014
Spine  -4.76447 -1.67978 3.04191
Spine1  8.40483 -1.5155 -1.8191
HEad  2.34089 -8.06072 1.57707
LeftShoulder1  0.963078 -0.216831 -21.201
LeftArm  -3.56869 10.6633 -48.1272
LeftForeArm  35.4656 2.30096 -12.0803
LeftHand  -0.0348616 4.98647 3.96937
RightShoulder  1.70749 2.02864 25.9736
RightArm  -19.3716 6.9839 55.6577
RightForeArm  71.061 -5.71021 6.22803
RightHand  0.206724 -6.68363 -19.5993
LeftUpLeg  -22.1084 -3.50329 1.06
LeftLeg  5.50004 -0.85406 2.4871
LeftFoot  -0.630704 1.25209 -13.2703
LeftToes  -1.90334e-010 -8.83595e-011 4.99953e-011
2626
root  -58.1325 39.0969 15.282 173.955 69.8186 169.133
RightUpLeg  0.679442 -3.82921 -0.665867
RightLeg  13.544 3.18428 0.435548
RightFoot  -17.9026 -0.256228 -2.3581
RightToes  -1.11029e-010 1.2921e-014 -6.02303e-014
Spine  -5.05491 -1.75922 2.55422
Spine1  8.6033 -1.61813 -1.7455
HEad  2.36607 -7.1839 1.64555
LeftShoulder1  0.93247 -0.0909035 -21.3203
LeftArm  -3.61866 11.9716 -47.8293
LeftForeArm  35.6759 2.63264 -12.1087
LeftHand  -0.0324311 5.13631 3.85922
RightShoulder  1.68121 1.95778 25.8993
RightArm  -19.2263 6.44763 55.1426
RightForeArm  70.9163 -5.73552 6.34856
RightHand  0.194009 -6.60311 -19.6688
LeftUpLeg  -22.4101 -2.03012 0.326794
LeftLeg  0.140518 -0.547906 2.03305
LeftFoot  -1.90981 1.2334 -14.7471
LeftToes  -1.90334e-010 -8.83595e-011 4.99953e-011
2627
root  -57.4179 38.9247 14.7812 174.387 70.1348 169.863
RightUpLeg  2.15021 -3.57942 -0.765109
RightLeg  14.0019 3.21024 0.344648
RightFoot  -19.1881 -0.279296 -2.18007
RightToes  -1.11029e-010 1.2921e-014 -6.02303e-014
Spine  -5.13259 -1.80022 2.33269
Spine1  8.79211 -1.67411 -1.68844
HEad  2.51579 -6.5134 2.01822
LeftShoulder1  0.911926 -0.0128922 -21.348
LeftArm  -3.857 13.1089 -47.5407
LeftForeArm  35.499 2.96563 -12.0633
LeftHand  -0.0338857 5.08125 3.79415
RightShoulder  1.66042 1.86328 26.0861
RightArm  -19.2443 6.02858 54.2357
RightForeArm  70.9401 -5.74544 6.4154
RightHand  0.206181 -6.6759 -19.6595
LeftUpLeg  -23.1718 -2.21724 -0.0342937
LeftLeg  -1.23935 1.72184 1.93801
LeftFoot  -3.54298 0.969413 -13.8578
LeftToes  -1.90334e-010 -8.83595e-011 4.99953e-011
2628
root  -56.6427 38.6675 14.2525 174.981 70.3448 170.957
RightUpLeg  3.62624 -3.09824 -0.720831
RightLeg  15.1779 2.8749 0.249579
RightFoot  -20.9058 -0.296146 -1.84916
RightToes  -1.11029e-010 1.2921e-014 -6.02303e-014
Spine  -5.12084 -1.75448 2.2269
Spine1  8.99587 -1.63539 -1.65526
HEad  2.6739 -6.28193 2.67993
LeftShoulder1  0.85445 0.193321 -21.3193
LeftArm  -4.01278 13.8327 -47.2654
LeftForeArm  35.1601 3.414 -12.0437
LeftHand  -0.0362881 5.16487 3.72141
RightShoulder  1.65246 1.78211 26.4556
RightArm  -20.1888 5.70665 53.1857
RightForeArm  71.9073 -5.63693 5.98429
RightHand  0.220576 -6.75191 -19.7774
LeftUpLeg  -24.3816 -2.5787 -0.351312
LeftLeg  1.39559 3.21532 2.16602
LeftFoot  -3.5424 0.868147 -12.3879
LeftToes  -1.90334e-010 -8.83595e-011 4.99953e-011
2629
root  -55.8157 38.4281 13.7262 174.701 71.028 171.184
RightUpLeg  5.23135 -1.72556 -0.803709
RightLeg  16.2573 2.16717 0.0947901
RightFoot  -22.4275 -0.284311 -1.36535
RightToes  -1.11029e-010 1.2921e-014 -6.02303e-014
Spine  -5.37145 -1.44207 1.96501
Spine1  9.63602 -1.1487 -2.13021
HEad  2.72174 -6.31628 3.54186
LeftShoulder1  0.774056 0.464981 -21.1
LeftArm  -4.05989 14.4209 -47.0473
LeftForeArm  34.8665 3.67894 -12.048
LeftHand  -0.0378419 5.23568 3.67028
RightShoulder  1.69889 1.86459 26.8553
RightArm  -21.8302 5.21834 52.1817
RightForeArm  73.0618 -5.45429 5.15109
RightHand  0.249681 -6.93413 -19.6534
LeftUpLeg  -25.3184 -3.43752 -0.609443
LeftLeg  5.68418 4.19138 2.64472
LeftFoot  -2.57146 0.812086 -10.3693
LeftToes  -1.90334e-010 -8.83595e-011 4.99953e-011
2630
root  -54.953 38.2772 13.1833 173.208 72.3984 170.174
RightUpLeg  6.75732 0.686918 -1.18228
RightLeg  17.4517 1.3607 0.104977
RightFoot  -23.2713 -0.225391 -0.649056
RightToes  -1.11029e-010 1.2921e-014 -6.02303e-014
Spine  -5.43081 -0.958641 1.49103
Spine1  10.0591 -0.368355 -2.98174
HEad  2.9799 -6.1267 4.31252
LeftShoulder1  0.628273 0.997214 -21.064
LeftArm  -4.03822 15.2499 -46.4889
LeftForeArm  34.5328 3.58137 -12.053
LeftHand  -0.035932 5.21303 3.75104
RightShoulder  1.76609 2.00437 27.2777
RightArm  -24.0807 4.86147 51.3266
RightForeArm  74.9152 -5.16782 3.87312
RightHand  0.291798 -7.16492 -19.8389
LeftUpLeg  -25.4808 -5.4505 -0.4471
LeftLeg  9.16539 5.43477 3.47554
LeftFoot  1.7115 1.09878 -9.67942
LeftToes  -1.90334e-010 -8.83595e-011 4.99953e-011
